<?xml version="1.0" encoding="UTF-8"?>
<svg id="Layer_1" data-name="Layer 1" xmlns="http://www.w3.org/2000/svg" xmlns:xlink="http://www.w3.org/1999/xlink" viewBox="0 0 894 1227">
  <defs>
    <style>
      .cls-1 {
        fill: none;
        stroke: #2f1227;
        stroke-miterlimit: 10;
        stroke-width: 8px;
      }

      .cls-2 {
        clip-path: url(#clippath);
      }

      .cls-3 {
        fill: #2f1227;
      }
    </style>
    <clipPath id="clippath">
      <rect class="cls-1" x="181.43" y="208.01" width="536.35" height="809.28" rx="268.17" ry="268.17"/>
    </clipPath>
  </defs>
  <g>
    <g>
      <g class="cls-2">
        <path class="cls-3" d="M714.73,555.5c7.31-15.83,6.23-34.8,4.46-64.03-1.77-29.23-8.13-19.57-20.84-43.88-12.72-24.32-28.45-35.68-39.9-39.83,0,0,2.79-13.01-12.79-28.41-15.58-15.4-22.32-43.02-34.94-47.58-12.61-4.56-16.03,14.94-17.05,18.95-.41,1.62-.24,5.38.18,9.63-49.52-63.1-109.17-110.45-109.17-110.45-20.09-15.96-29.26-10.94-50.36,2.21-136.03,84.76-176.47,210.7-176.47,210.7,4.25,6.47,29.68,63.25,37.82,91.4-3.05,30.95-6.3,76.38,4.65,144.84,3.62,22.63,4.24,41.04,6.13,57.36-.23-.26-.37-.41-.37-.41,0,0-3.13,3.98-10.29,8.07-.24.14-.47.29-.69.44-2.07,1.1-9.48,3.75-30.78,1.65-26.43-2.61-79.44-19.7-79.44-19.7-48.58,22.07-50.11,112.76-50.49,119.29-.38,6.53-.96,7.54,20.44,9.05,21.4,1.51,33.21,16.75,48.77,25.7,15.56,8.95,48.24,12.48,67.53,28.16,19.3,15.68,71.23,27.94,87.46,30.96,16.24,3.02,18.2,2.39,35.44,0,17.23-2.39,70.52-19.53,72.8-23.42,2.28-3.88,7.35-.82,29.64-2.62,22.29-1.81,29.1-19.41,29.79-23.22.48-2.61,2.37-6.8-9.23-7.7,24.54.42,23.76-15.71,23.76-18.02s-7.98-13.97-20.89-14.72c-8.9-.52-6.82-1.48-24.3-1.55,16.17-4.17,13.01-3.32,19.18-6.19,95.86-44.63,83.7-88.44,94.44-156.04,3.08-19.36,5.06-38.97,6.22-57.81,3.31,3.99,6.57,9.25,8.78,17.1,7.03,25.01,45.87,38.46,54.68,67.15,8.81,28.69,32.08,66.65,33.23,71.42,1.15,4.77,8.97-169.95,12.5-199.7,3.54-29.75-13.17-41.76-9.92-48.79ZM538.54,407.12c-1.16-.67-2.88-.63-8.22-6.95-.01-.01-.02-.03-.03-.04,6.01,6.92,7.07,5.24,8.34,6.89,0,0-.04.04-.1.09ZM547.18,447.76c-1.26-.95-3.82-3.06-6.75-6.49,3.85,4.33,6.92,6.31,6.92,6.31,0,0-.07.07-.17.17ZM537.05,415.19c1.28-7.82,12.95-3.97,16.02-2.31,0,0,5.38,3.2,12.05,8.82,6.67,5.61,28.97,21.57,45.89,32.25,16.92,10.69,56.15,48.28,61.02,56.49,4.87,8.2-19.49,33.07-20,38.46-.51,5.38-3.08,5.9-3.78,0-.7-5.9-4.86-22.05-41.61-62.73-36.75-40.68-34.19-27.37-55.6-41.19-18.38-11.87-15.3-21.96-14.01-29.78ZM627.12,455.97c-9.18-6.55-45.33-29.62-54.82-37.83-9.49-8.2-23.14-13.23-27.95-13.22s-19.36-8.73-13.08-19.6c6.28-10.88,18.72-9.23,25.64-3.33,6.92,5.9,48.62,32.82,58.46,36.41,32.31,11.79,39.99,34.42,66.15,51.22,18.97,12.18,2.31,32.37,1.28,35.19-1.03,2.82-3.28,3.33-5.9,0-8.17-10.41-40.61-42.28-49.79-48.83ZM506.83,334.74c1.26,9.48-3.88,36.43,6.01,40.52,17.77,7.34,11.83,20.36,11.83,20.36-9.99-7.66-25.18-3.74-25.95-24.68-.77-20.94-5.42-70.94-8.2-94.66,14.09,2.53,15.05,49,16.31,58.47ZM287.82,463.14s-3.71-11.23-8.45-15.49c0,0,73.02-135.37,153.78-161.26,1.16,20.54,5.97,72.56,2.55,84.88-3.42,12.33-4.31,14.32-19.06,18.55-14.75,4.24-91,31.95-128.82,73.32ZM280.86,917.09c-10.82-13.43-66.91-21.01-90.53-40.69-23.62-19.68-40.15-1.96-37.88-22.35,5.64-50.76,30.21-97.69,40.84-91.79,8.86,4.92,71.34,18.7,71.83,45.26.49,26.57,7.38,36.41,22.63,74,15.25,37.6,3.94,48.99-6.89,35.57ZM297,815.91c6.96,4.14,23.73,4.42,36.02,3.29,0,0-2.16,4.46-15.53,5.67-13.37,1.21-27.44-13.1-20.49-8.96ZM417.58,945.24c-15.32,0-26.44,11.17-54.77,5.35-28.33-5.82-32.76-13.45-35.37-21.78-2.71-8.65,6.4-3.42,10.09-1.67,3.69,1.74,18.6,15.12,34.98,12.41,18.71-3.1,44.59-1.55,48.51.5,3.92,2.05,3.45,5.2-3.43,5.2ZM516.55,913.9c-1.97,5.26-9.35,11.18-16.24,12.85-6.89,1.67-55.59,3.44-67.4,3.29-11.81-.15-16.44,2.39-57.98-5.16-13.68-2.49-39.25-14.65-47.27-20.34-7.41-5.26-18.23-26.04-13.57-38,4.46-11.44,40.87,19.31,70.35,32.06,17.93,7.76,60.93,12.91,101.6,10.46,17.47-1.05,24.85-1.89,24.85-1.89,3.2.63,7.63,1.47,5.66,6.73ZM505.05,895.23c2.97-.65,9.09,1.3,4.02,2.76s-27.41,1.5-46.06,2.22c-18.65.72-56.94-18.41-63.71-29.06-4.84-7.62-2.14-4.99,5.25-3,10.76,5.05,21.01,8.13,30.64,9.79,6.09,2.85,12.93,6.01,21.01,8.89,20.29,7.24,45.88,9.05,48.85,8.4ZM484.32,782.16c-10.11,3.79-24.01-.38-42.33-1.33s-20.85,9.22-17.22,15.16c4.54,7.42,21.64-3.41,40.9,1.64,19.27,5.05,27.01,51.17-1.11,56.95-12.64,2.6-33.74,7.47-78.02-22.11-67.75-45.26-60.65-97.8-64.91-143.74-4.26-45.94-4.77-139.35,5.69-179.55,5.68-21.84,11.84-46.05,37.23-41.58,25.5,4.49,10.65-39.18,40.79-30.91,25.35,6.96,36.53,16.66,64.11,11.05,28.95-5.89,24.66,8.37,44.08,31.11,19.43,22.74,34.27,61.5,27.17,81.87-7.11,20.37-29.47,1.17-53.7,16.58-15.64,9.95-22.27,25.68-21.79,39.42.47,13.74,0,66.81-.47,75.81-.47,9-3.76,18.48-16.58,18.48-7.26,0-9.32,5.84-8.53,12.03.22,1.69,3.79,6.92,10.42,6.92s18.95-.79,20.21,13.9c1.26,14.69-20.85,9-21.16,8.69s-23.88-2.14-38.54,8.84c-12.63,9.48-12.55,12.35-7.49,16.14,5.05,3.79,16.97-3.45,21.39-9.76,4.42-6.32,14.7-6.21,22.74-.95,12.63,8.27,21.87-7.36,38.22-2.37,12.95,3.95,9,13.9-1.11,17.69ZM546.38,597.79c10.58-.06,14.06,9,13.74,12.79-.32,3.79-3.32,11.85-13.58,12.95-10.27,1.11-32.53,2.21-37.9-6.32-2.54-4.04,13.25-19.28,37.75-19.43ZM569.28,681.66c-3.16,6.32-26.69,32.85-29.85,36.96-3.16,4.11-13.58,5.84-16.42-4.42-2.84-10.27-11.84-41.54-13.27-65.7-.26-4.41,4.42-7.11,8.84-4.9,4.42,2.21,11.84,12.16,34.74,12.32,22.9.16,19.11,19.43,15.95,25.74ZM561.34,496.85c-2.95-2.41-6.18-5.65-9.23-9.23,2.85,3.27,5.83,6.23,8.57,8.46,3.24,2.64,9.53,9.38,16.45,17.41-6.66-7.69-12.65-14.08-15.79-16.64ZM606.76,639.24c2.34,2.61,5.46,5.22,8.56,8.92-3.18-3.64-6.32-6.23-8.56-8.92ZM661.94,652.34c-31.69,9.89-38.34-1.39-42.71-8.57-4.37-7.18-16.35-6.6-9.59-26.63,6.76-20.03,8.04-48.23,8.04-48.23.51-5.64-4.61-12.82-7.44-19.49-2.82-6.67-21.02-29.74-26.51-37.69-5.48-7.95-28.36-26.67-32.98-35.9-4.62-9.23-1.28-13.33,2.74-18.63,4.02-5.3,22.54,7.95,28.54,12.41,7.74,5.77,40.51,45.19,44.87,56.21.81,2.05,1.22,4.7,1.34,7.69,3.53,9.75,12.5,45.64,7.25,71.28-5.26,25.64,3.07,42.19,16.79,38.46,13.73-3.73,31.42-7.57,36.48-16.86,5.06-9.29,7.1-3.79,7.62,0,.53,3.79-2.76,16.06-34.46,25.95ZM694.86,476.86c-1.79-4.36-30.51-39.23-59.35-53.07-28.84-13.85-57.3-34.87-68.07-39.74-10.77-4.87-12.56-7.69-12.31-12.56.26-4.87,12.7-2.97,17.44-1.12,6.75,2.64,65.89,30.34,84.35,41.37,18.46,11.02,30.51,25.13,37.95,35.85,7.44,10.73,1.79,33.63,0,29.27Z"/>
      </g>
      <rect class="cls-1" x="181.43" y="208.01" width="536.35" height="809.28" rx="268.17" ry="268.17"/>
    </g>
    <g>
      <path class="cls-3" d="M137.08,683.87c-.47-5.1-5.95-6.48-10.27-7.49l-35.8-8.55c-.08,0-.17-.09-.25-.09-1.08-.27-2.33-.55-3.49-.58-1.59-.04-3.02.43-3.3,2.18l-.75-.02.37-17.02.75.02c.3,1.51,1.46,1.95,2.71,1.98.75.02,1.59-.13,2.43-.28l34.89-7-33.22-8.08c-1.16-.28-2.57-.72-3.82-.75-1.34-.03-2.43.45-2.72,2.19l-.75-.02.38-17.19.75.02c.38,1.84,1.37,2.45,2.7,2.48.67.01,1.51-.13,2.34-.28l40.17-8.05c3.52-.67,7.86-.75,8.46-5.24l.75.02-.4,18.19-.75-.02c-.26-3.26-2.16-4.14-4.42-4.19-1.75-.04-3.6.25-5.94.71l-37.15,7.28,38.87,9.37c1.16.28,2.49.64,3.74.67,2.17.05,4.11-.83,4.68-4.07l.75.02-.42,19.03-.75-.02c-.17-3.68-1.82-4.63-3.91-4.68-1.34-.03-2.59.19-4.52.57l-39.08,7.83,37.88,8.93c1.16.28,2.49.56,3.74.58,2.67.06,5.2-.89,5.7-4.72l.75.02-.36,16.27-.75-.02Z"/>
      <path class="cls-3" d="M136.34,717.24c-.72-5.36-4.97-5.54-9.56-5.64l-33.55-.74c-4.59-.1-9.43-.12-10.3,5.2l-.75-.02.44-20.03.75.02c.55,5.36,4.89,5.53,9.48,5.63l33.63.74c4.59.1,9.43.12,10.3-5.2l.75.02-.44,20.03-.75-.02Z"/>
      <path class="cls-3" d="M138.68,782.53c-1.11-5.28-5.44-5.08-9.94-4.78l-33.57,2.24c-4.66.31-9.41.71-9.8,6.09l-.75.05-1.09-16.41.75-.05c.94,5.38,5.29,5.25,9.95,4.94l7.58-.51c3.92-.26,4.65-.56,8.02-5.14l20.15-27.78-37.23,2.48c-4.75.32-9.66.73-9.8,6.09l-.75.05-1.08-16.24.75-.05c1.11,5.28,5.44,5.08,9.94,4.78l33.57-2.24c4.58-.3,9.41-.71,9.8-6.09l.75-.05,1.46,21.91-.75.05c-.16-1.16-.53-1.72-1.12-1.68-.75.05-1.85,1.04-3.08,2.8l-14.56,20.05,9.91-.66c4.75-.32,9.57-.72,9.79-6.26l.75-.05,1.09,16.41-.75.05Z"/>
      <path class="cls-3" d="M135.49,839.86l-.39-.6c7.47-5.26,9.19-14.79,7.32-23.19-1.25-5.62-2.57-7.3-8.52-5.97l-4.64,1.04,1.4,6.27c1.51,6.76,2.67,8.9,6.91,7.95l.41.68-17.54,7.25-.39-.6c8.9-4.98,7.75-10.11,5.83-18.75l-.44-1.96-21.84,4.87c-6.36,1.42-8.93,2.16-7.09,10.39,2.6,11.65,9.78,18.17,21.18,20.94l-.06.87-21.83-2.4c.48-.53.52-1.14.53-1.83-.05-.59-.13-1.34-.27-1.99l-8.34-37.4.73-.16c.18.81,1.27,2.62,2.81,3.39,2.12,1.07,4.89.45,7.74-.19l32.84-7.32c4.4-.98,9.11-2.12,8.76-7.51l.73-.16,7.78,34.88c.69,3.1.76,3.42,1.96,4.18l-15.56,7.32Z"/>
      <path class="cls-3" d="M179.05,908.26c2.13,4.44,5.67,12.19-.57,15.19-4.29,2.06-7.63.52-16.45-5.89,1.24,9.13-.12,20.16-9.3,24.58-13.17,6.33-21.16-5.85-27.38-18.79l-9.08-18.88.68-.33c2.99,4.49,6.94,2.68,11,.73l30.32-14.58c4.14-1.99,8.47-4.16,6.83-9.3l.68-.33,13.28,27.61ZM148.86,904.99l-16.85,8.1c-4.89,2.35-5.73,3.31-3.12,8.73,3.83,7.98,10.69,16.07,20.77,11.22,6.85-3.29,9.29-11.69,8.95-18.76l-9.75-9.3ZM152.39,903.29c3.82,4.28,13.96,14.97,20.35,11.89,3.24-1.56,2.66-5.63-.19-11.58-.94-1.96-3.08-6.21-5.05-6.65-1.23-.24-3.75.88-5.1,1.53l-10.01,4.81Z"/>
      <path class="cls-3" d="M164.13,991.92c-4.4-6.19-6.69-13.58-5.64-21.18,1.04-7.61,5.5-14.88,11.69-19.28,13.6-9.68,30.9-6.1,40.43,7.3,9.82,13.81,7.41,31.3-6.6,41.27-13.26,9.43-30.78,4.68-39.88-8.1ZM178.43,957.88c-10.14,7.21-17.73,21.73-9.65,33.09,6.77,9.52,18.6,8.59,27.38,2.34,12.11-8.61,16.62-24.01,9.8-33.6-6.92-9.73-18.75-8.07-27.53-1.83Z"/>
      <path class="cls-3" d="M218.16,1053.92c-5.55-5.19-9.27-11.97-9.76-19.63-.5-7.66,2.42-15.68,7.61-21.23,11.4-12.2,29.06-12.15,41.08-.92,12.38,11.57,13.51,29.19,1.77,41.76-11.11,11.9-29.23,10.74-40.7.03ZM225.37,1017.71c-8.49,9.09-13.04,24.84-2.85,34.36,8.54,7.98,19.95,4.7,27.3-3.17,10.14-10.86,11.49-26.85,2.89-34.89-8.72-8.15-19.99-4.16-27.34,3.71Z"/>
      <path class="cls-3" d="M330.44,1066.6c-4.18-2.12-7.19-2.46-17.59-1.02l-8.03,1.21c3.2,11.37,3.11,22.22,1.25,33.76l-.62,4.11c-.52,3.29-1.68,7.66,1.36,10.06l-.39.64-15.74-9.45.39-.64c1.63.69,3.24.29,4.18-1.29,2.28-3.79,3.12-12.83,3.24-17.24.07-6.28-.68-12.48-1.93-18.68l-10.06,1.36-9.37,15.6c-2.45,4.08-4.91,8.34-.59,11.52l-.39.64-17.18-10.31.39-.64c5.01,2.04,7.27-1.57,9.59-5.44l17.32-28.84c2.36-3.94,4.74-8.06.59-11.52l.39-.64,17.18,10.31-.39.64c-4.84-2.32-7.19,1.43-9.59,5.44l-5.24,8.73,9.12-1.24c10.82-1.49,14.7-2.76,15.78-4.55.77-1.29.16-2.05-.9-2.88l.39-.64,17.25,10.36-.39.64Z"/>
      <path class="cls-3" d="M372.56,1098.04l-.69-.06c.04-8.03-5.69-15.48-13.27-18.1-4.42-1.53-10.46-1.94-12.21,3.11-.93,2.68.69,4.65,6.11,8.65l9.9,7.13c9.19,6.62,11.25,13.96,9.02,20.43-4.31,12.47-14.91,15.78-27.85,11.31-6.47-2.24-10.65-6.51-14.36-7.79-1.18-.41-2.19-.05-3.17.49l2.24-21.31h.79c-.35,10.22,4.48,20.02,14.58,23.51,10.18,3.52,16.38,1.16,18.75-5.71,2.37-6.86-3.23-10.83-8.03-14.34l-9.38-6.86c-5.5-4.02-9.8-8.69-7.3-15.95,3.19-9.23,13.55-10.07,20.73-7.59,6.08,2.1,8.39,5.11,13.05,6.72,1.34.46,2.22.24,3.33-.44l-2.27,16.79Z"/>
      <path class="cls-3" d="M460.34,1092.51c-1.49.45-2.39,1.38-2.36,3.05.02,1,.46,2.33.82,3.24l15.09,40.78c1.15,3.07,1.86,5.22,5.21,5.99v.75s-18.93.38-18.93.38v-.75c2.98-.73,4.02-3,3.96-5.92-.13-6.34-7.29-17.97-23.15-17.91l-4.73,13.87c-.63,1.93-1.26,3.95-1.22,5.95.05,2.67,2.26,4.3,4.68,4.42l.02.75-17.03.34v-.75c1.98-.46,3.05-.98,4.27-2.76,1.46-2.2,2.73-5.4,3.6-7.84l12.73-35.74c.55-1.6,1.19-3.2,1.16-4.87-.03-1.5-1.22-2.4-2.64-2.62v-.75s18.51-.37,18.51-.37l.02.75ZM441.99,1118.43c6.18-.12,12.9,2.16,16.98,5.92l-9.79-26.11-7.2,20.18Z"/>
      <path class="cls-3" d="M537.56,1082.95c-5.12,1.69-4.43,5.98-3.63,10.41l5.99,33.1c.83,4.6,1.76,9.27,7.15,9.05l.13.74-16.18,2.93-.13-.74c5.24-1.54,4.63-5.84,3.79-10.44l-1.35-7.47c-.7-3.86-1.08-4.55-6-7.4l-29.86-16.91,6.64,36.72c.85,4.68,1.81,9.51,7.15,9.05l.13.74-16.02,2.9-.13-.74c5.12-1.69,4.43-5.98,3.63-10.41l-5.99-33.1c-.82-4.52-1.76-9.27-7.15-9.05l-.13-.74,21.6-3.91.13.74c-1.14.29-1.65.72-1.55,1.3.13.74,1.25,1.73,3.13,2.74l21.55,12.22-1.77-9.77c-.85-4.68-1.79-9.43-7.32-9.03l-.13-.74,16.18-2.93.13.74Z"/>
      <path class="cls-3" d="M564.88,1071.4c8.01-3.55,15.57-5.45,24.28-2.92,8.08,2.35,15.02,8.32,18.44,16.02,3.01,6.79,3.38,15.03,0,21.83-3.79,7.71-10.14,10.71-17.61,14.03l-20.99,9.31-.3-.69c4.55-2.93,2.89-6.86,1.07-10.98l-13.65-30.75c-1.86-4.2-3.9-8.59-9.09-7.11l-.3-.69,18.16-8.06ZM576.43,1110.39c3.96,8.93,5.89,9.17,12.23,6.36,12.06-5.35,15.3-15.74,10.02-27.64-5.62-12.67-18.04-20.49-31.32-14.6-5.04,2.23-5.38,3.3-2.17,10.55l11.24,25.33Z"/>
      <path class="cls-3" d="M681.72,984.55c-3.16,4.03-.13,8.8,2.32,12.5l20.13,30.81c.06.06.06.18.12.24.6.94,1.31,2,2.14,2.82,1.13,1.12,2.49,1.76,3.9.69l.53.53-11.97,12.11-.53-.53c.82-1.3.28-2.42-.61-3.3-.53-.53-1.25-1-1.96-1.46l-30.16-18.89,18.58,28.7c.66,1,1.37,2.29,2.26,3.17.95.94,2.07,1.35,3.48.28l.53.53-12.09,12.23-.53-.53c.99-1.6.69-2.72-.26-3.66-.48-.47-1.19-.94-1.9-1.41l-34.72-21.76c-3.02-1.93-6.23-4.86-9.75-2.01l-.53-.53,12.79-12.94.53.53c-2.05,2.55-1.27,4.49.33,6.08,1.25,1.23,2.79,2.29,4.8,3.57l31.99,20.24-21.8-33.52c-.66-1-1.37-2.18-2.26-3.06-1.54-1.53-3.55-2.22-6.2-.26l-.53-.53,13.38-13.54.53.53c-2.4,2.79-1.86,4.62-.38,6.08.95.94,2.02,1.64,3.68,2.69l33.77,21.17-21.38-32.52c-.66-1-1.43-2.12-2.32-3-1.9-1.88-4.39-2.93-7.38-.49l-.53-.53,11.44-11.58.53.53Z"/>
      <path class="cls-3" d="M749.45,980.1c-3.97,6.48-9.87,11.48-17.27,13.5-7.41,2.02-15.84.77-22.32-3.19-14.24-8.72-17.73-26.03-9.15-40.06,8.85-14.45,25.89-19.1,40.55-10.12,13.88,8.5,16.39,26.48,8.19,39.86ZM712.53,980.3c10.61,6.5,26.95,7.79,34.23-4.1,6.1-9.97.6-20.48-8.58-26.11-12.67-7.76-28.61-5.87-34.76,4.17-6.23,10.18-.07,20.42,9.12,26.04Z"/>
      <path class="cls-3" d="M741.56,866.01c-1.21,5.26,2.81,6.89,7.02,8.51l31.4,12.06c4.36,1.68,8.84,3.3,11.45-1.41l.7.27-5.9,15.35-.7-.27c1.4-5.27-2.59-6.99-6.96-8.66l-7.09-2.72c-3.66-1.41-4.45-1.44-9.44,1.29l-29.96,16.75,34.83,13.38c4.44,1.71,9.07,3.39,11.45-1.41l.7.27-5.84,15.2-.7-.27c1.21-5.26-2.81-6.89-7.02-8.51l-31.4-12.07c-4.29-1.65-8.84-3.3-11.45,1.41l-.7-.27,7.87-20.49.7.27c-.34,1.12-.24,1.79.31,2,.7.27,2.12-.17,3.97-1.25l21.63-12.08-9.27-3.56c-4.44-1.71-8.99-3.37-11.51,1.57l-.7-.27,5.9-15.35.7.27Z"/>
      <path class="cls-3" d="M748.08,835.65c1.8-8.58,4.68-15.82,11.82-21.4,6.63-5.18,15.52-7.32,23.77-5.59,7.27,1.53,14.17,6.04,17.71,12.75,4.04,7.58,2.76,14.48,1.08,22.49l-4.71,22.47-.74-.15c.28-5.4-3.87-6.36-8.28-7.28l-32.92-6.91c-4.49-.94-9.25-1.86-11.08,3.22l-.74-.15,4.08-19.44ZM786.46,849.08c9.56,2,10.88.58,12.3-6.2,2.71-12.91-3.82-21.61-16.57-24.29-13.56-2.84-27.17,2.66-30.15,16.88-1.13,5.39-.47,6.3,7.29,7.93l27.12,5.69Z"/>
      <path class="cls-3" d="M774.78,747.85l.21.68c-8.63,2.98-12.93,11.66-13.46,20.24-.35,5.75.44,7.72,6.53,8.1l4.75.29.4-6.42c.43-6.92-.1-9.29-4.43-9.56l-.2-.77,18.86-2.1.21.68c-9.93,2.31-10.25,7.56-10.8,16.39l-.12,2,22.33,1.38c6.5.4,9.17.4,9.69-8.02.74-11.91-4.36-20.17-14.54-25.99l.3-.82,20.31,8.36c-.61.38-.81.95-1.02,1.61-.12.58-.25,1.32-.29,1.99l-2.36,38.24-.75-.05c.05-.83-.49-2.87-1.76-4.04-1.74-1.61-4.57-1.79-7.49-1.97l-33.58-2.07c-4.5-.28-9.34-.49-10.5,4.79l-.75-.05,2.2-35.66c.2-3.17.22-3.5-.72-4.56l16.98-2.71Z"/>
      <path class="cls-3" d="M758.54,699.85c0-9.02,2.84-12.02,8.52-12.02,6.85,0,10.94,6.68,13.77,12.02,7.18-6.43,16.03-11.1,24.88-14.61,5.26-2.09,6.43-3.17,7.01-5.84h.75v17.95h-.75c-.33-1.84-1.17-3.09-3.26-3.09-6.85,0-18.45,7.6-25.21,13.11l3.34,10.18h14.94c5.26,0,9.43-.08,10.18-5.43h.75v20.04h-.75c-.83-5.34-5.09-5.43-9.68-5.43h-33.56c-4.59,0-9.43.08-10.18,5.43h-.75v-32.31ZM783.67,717.54c-1.67-5.93-6.93-20.62-14.69-20.62-6.01,0-6.59,5.09-6.59,10.02,0,2.42,0,8.1,1.84,9.6,1.09.83,3.67,1,5.18,1h14.28Z"/>
      <path class="cls-3" d="M774.41,630.3l.17.67c-7.6,2.59-12.77,10.44-12.77,18.45,0,4.68,1.59,10.52,6.93,10.52,2.84,0,4.17-2.17,6.18-8.6l3.51-11.69c3.26-10.85,9.52-15.19,16.36-15.19,13.19,0,19.78,8.93,19.78,22.62,0,6.85-2.67,12.19-2.67,16.11,0,1.25.67,2.09,1.5,2.84l-20.87,4.84-.25-.75c9.77-3.01,17.45-10.77,17.45-21.46s-4.26-15.86-11.52-15.86-9.18,6.59-10.94,12.27l-3.42,11.1c-2,6.51-5.01,12.1-12.69,12.1-9.77,0-13.94-9.52-13.94-17.11,0-6.43,2.09-9.6,2.09-14.53,0-1.42-.5-2.17-1.5-3l16.61-3.34Z"/>
    </g>
    <path class="cls-3" d="M449.6,1214.73c-238.35,0-432.26-193.91-432.26-432.26v-334.63C17.34,209.5,211.25,15.59,449.6,15.59s432.26,193.91,432.26,432.26v334.63c0,238.35-193.91,432.26-432.26,432.26ZM449.6,23.59C215.66,23.59,25.34,213.91,25.34,447.84v334.63c0,233.94,190.32,424.26,424.26,424.26s424.26-190.32,424.26-424.26v-334.63c0-233.94-190.32-424.26-424.26-424.26Z"/>
    <path class="cls-3" d="M449.6,1192.74c-55.38,0-109.11-10.85-159.7-32.24-48.85-20.66-92.73-50.25-130.41-87.92s-67.26-81.55-87.92-130.41c-21.39-50.58-32.24-104.31-32.24-159.69v-334.63c0-55.38,10.85-109.11,32.24-159.7,20.66-48.85,50.24-92.73,87.92-130.41s81.55-67.26,130.41-87.92c50.58-21.39,104.31-32.24,159.7-32.24s109.11,10.85,159.7,32.24c48.85,20.66,92.73,50.25,130.41,87.92,37.68,37.68,67.26,81.55,87.92,130.41,21.39,50.58,32.24,104.31,32.24,159.7v334.63c0,55.38-10.85,109.11-32.24,159.69-20.66,48.85-50.24,92.73-87.92,130.41-37.68,37.68-81.55,67.26-130.41,87.92-50.58,21.39-104.31,32.24-159.7,32.24ZM449.6,45.58c-221.81,0-402.27,180.46-402.27,402.27v334.63c0,221.81,180.46,402.27,402.27,402.27h0c221.81,0,402.27-180.46,402.27-402.27v-334.63c0-221.81-180.46-402.27-402.27-402.27Z"/>
    <g>
      <path class="cls-3" d="M338.76,89.54c13.5-4.03,25.94-5.5,39.29.32,12.39,5.4,22.23,16.33,26.1,29.31,3.41,11.44,2.31,24.65-4.46,34.79-7.63,11.51-18.35,14.99-30.95,18.75l-35.35,10.54-.34-1.16c7.84-3.74,6.02-10.33,3.95-17.28l-15.45-51.81c-2.11-7.07-4.46-14.49-13.03-13.19l-.35-1.16,30.6-9.13ZM349.19,154.05c4.49,15.04,7.52,15.82,18.19,12.63,20.31-6.06,27.61-21.95,21.63-42.01-6.37-21.34-24.56-36.35-46.93-29.68-8.48,2.53-9.26,4.16-5.62,16.37l12.73,42.68Z"/>
      <path class="cls-3" d="M492.68,98.77l-1.09.37c-5.18-13.73-19.33-20.24-33.14-20.7-9.25-.31-12.38,1.07-12.71,10.85l-.25,7.64,10.32.34c11.13.37,14.92-.58,15.15-7.55l1.22-.36,4.23,30.21-1.09.37c-4.17-15.84-12.62-16.12-26.83-16.6l-3.22-.11-1.19,35.93c-.35,10.46-.22,14.76,13.32,15.21,19.17.64,32.21-7.92,41.08-24.54l1.33.45-12.51,33.01c-.64-.96-1.57-1.26-2.63-1.56-.93-.17-2.14-.34-3.21-.38l-61.54-2.04.04-1.21c1.34.04,4.59-.92,6.41-3.01,2.51-2.87,2.66-7.43,2.82-12.12l1.8-54.03c.24-7.24.36-15.02-8.17-16.65l.04-1.21,57.39,1.91c5.09.17,5.63.19,7.29-1.37l5.14,27.15Z"/>
      <path class="cls-3" d="M605.18,106.23c-8.52-1.59-10.87,4.97-13.19,11.84l-17.25,51.24c-2.4,7.12-4.71,14.41,3.04,18.29l-.39,1.14-25.05-8.43.39-1.14c8.56,1.89,11.04-4.63,13.44-11.75l3.89-11.57c2.01-5.98,2.02-7.25-2.71-15.07l-28.92-46.96-19.13,56.83c-2.44,7.25-4.84,14.79,3.04,18.29l-.39,1.14-24.79-8.35.39-1.14c8.52,1.6,10.87-4.97,13.19-11.84l17.25-51.24c2.35-6.99,4.71-14.41-3.04-18.29l.39-1.14,33.44,11.26-.39,1.14c-1.82-.47-2.88-.26-3.18.63-.39,1.14.41,3.39,2.27,6.29l20.85,33.91,5.09-15.13c2.44-7.25,4.79-14.66-3.3-18.38l.39-1.14,25.05,8.43-.39,1.14Z"/>
      <path class="cls-3" d="M653.7,135.94c-8.03-3.32-11.7,2.45-15.54,8.76l-28.05,46.06c-3.84,6.3-7.77,13.02-1.07,18.51l-.63,1.03-27.5-16.75.63-1.03c7.89,3.55,11.63-2.34,15.47-8.64l28.12-46.17c3.84-6.3,7.77-13.02,1.07-18.51l.63-1.03,27.5,16.75-.63,1.03Z"/>
      <path class="cls-3" d="M704.07,210.91l-.96-.55c5.43-11.7,2.07-26.42-7.24-35.32-5.43-5.19-13.98-9.84-19.91-3.64-3.15,3.3-2.12,7.26,3.12,16.72l9.68,17.05c8.99,15.83,7.07,27.93-.53,35.88-14.65,15.32-32.35,13.05-48.25-2.15-7.95-7.6-11.19-16.64-15.74-21-1.45-1.39-3.17-1.54-4.97-1.41l17.56-29.61,1.15.54c-7.36,14.68-6.88,32.22,5.53,44.09,12.51,11.96,23.15,12.67,31.21,4.24s2.54-17.99-2.1-26.33l-9.09-16.31c-5.34-9.56-8.49-19.26.04-28.18,10.85-11.34,26.54-5.62,35.36,2.82,7.46,7.14,8.83,13.09,14.55,18.56,1.65,1.58,3.08,1.83,5.16,1.59l-14.58,23Z"/>
    </g>
    <g>
      <path class="cls-3" d="M250.95,138.14l5.06-3.52c2.34-1.63,2.94-2.51,3.3-3.89l1.35,5.72c-1.12-.26-2.38.62-3.2,1.19l-4.61,3.21,12.83,18.46c2.86,4.11,5.13,5.9,8.93,3.26,2.46-1.71,3.72-4.09,3.98-7.08l.51-.07,1.45,6.68c-1.96,2.58-4.47,4.89-7.07,6.69-6.07,4.22-10.08,1.01-13.68-4.17l-13.4-19.28-4.17,2.9-.4-.57c2.86-3.3,2.36-7.93-.18-11.59-.75-1.08-1.68-2.02-2.62-2.96l3.93-6.48,8,11.5Z"/>
      <path class="cls-3" d="M294.79,148.82c1.4,2.39.97,5.94-1.55,7.42-2.53,1.48-5.68.2-7.04-2.13-1.51-2.59-.93-5.87,1.72-7.43,2.53-1.48,5.51-.19,6.87,2.14Z"/>
    </g>
    <path class="cls-3" d="M448.77,1046.25c-150.01,0-272.05-125.8-272.05-280.42v-307.03c0-154.62,122.04-280.42,272.05-280.42s272.05,125.8,272.05,280.42v307.03c0,154.63-122.04,280.42-272.05,280.42ZM448.76,186.35c-145.5,0-263.88,122.22-263.88,272.45v307.03c0,150.23,118.38,272.45,263.88,272.45s263.88-122.22,263.88-272.45v-307.03c0-150.23-118.38-272.45-263.88-272.45Z"/>
    <path class="cls-3" d="M231.37,166.09l-.64.9c-11.12-6.53-26.1-4.6-35.86,3.81-5.69,4.91-11.14,12.97-5.53,19.47,2.98,3.45,7.02,2.8,16.95-1.5l17.9-8c16.63-7.42,28.48-4.36,35.66,3.97,13.84,16.05,9.89,33.45-6.78,47.82-8.33,7.18-17.64,9.54-22.41,13.65-1.52,1.31-1.84,3-1.88,4.81l-27.79-20.32.65-1.09c13.91,8.74,31.42,9.94,44.42-1.27,13.11-11.3,14.84-21.82,7.22-30.67-7.62-8.84-17.66-4.26-26.41-.43l-17.11,7.48c-10.03,4.39-19.99,6.6-28.05-2.74-10.25-11.89-3.04-26.96,6.2-34.93,7.82-6.74,13.87-7.53,19.87-12.7,1.73-1.49,2.12-2.89,2.08-4.98l21.5,16.72Z"/>
  </g>
  <circle class="cls-3" cx="633.58" cy="1068.23" r="10.04"/>
  <circle class="cls-3" cx="399.67" cy="1120.34" r="10.04"/>
  <circle class="cls-3" cx="130.99" cy="867.74" r="10.04"/>
</svg>